<?xml version="1.0" encoding="UTF-8" standalone="no"?>
<!-- Created with Inkscape (http://www.inkscape.org/) -->

<svg
   xmlns:dc="http://purl.org/dc/elements/1.1/"
   xmlns:cc="http://creativecommons.org/ns#"
   xmlns:rdf="http://www.w3.org/1999/02/22-rdf-syntax-ns#"
   xmlns:svg="http://www.w3.org/2000/svg"
   xmlns="http://www.w3.org/2000/svg"
   xmlns:sodipodi="http://sodipodi.sourceforge.net/DTD/sodipodi-0.dtd"
   xmlns:inkscape="http://www.inkscape.org/namespaces/inkscape"
   width="744.09448819"
   height="1052.3622047"
   id="svg2"
   version="1.1"
   inkscape:version="0.48.4 r9939"
   sodipodi:docname="drawing.svg">
  <defs
     id="defs4" />
  <sodipodi:namedview
     id="base"
     pagecolor="#ffffff"
     bordercolor="#666666"
     borderopacity="1.0"
     inkscape:pageopacity="0.0"
     inkscape:pageshadow="2"
     inkscape:zoom="0.35"
     inkscape:cx="375"
     inkscape:cy="520"
     inkscape:document-units="px"
     inkscape:current-layer="layer1"
     showgrid="false"
     inkscape:window-width="1920"
     inkscape:window-height="1017"
     inkscape:window-x="-8"
     inkscape:window-y="-8"
     inkscape:window-maximized="1" />
  <metadata
     id="metadata7">
    <rdf:RDF>
      <cc:Work
         rdf:about="">
        <dc:format>image/svg+xml</dc:format>
        <dc:type
           rdf:resource="http://purl.org/dc/dcmitype/StillImage" />
        <dc:title></dc:title>
      </cc:Work>
    </rdf:RDF>
  </metadata>
  <g
     inkscape:label="Layer 1"
     inkscape:groupmode="layer"
     id="layer1">
    <path
       style="fill:none;stroke:#000000;stroke-width:1px;stroke-linecap:butt;stroke-linejoin:miter;stroke-opacity:1"
       d="m 180,206.6479 c 28.77669,-6.27093 4.64466,10.35894 8.57143,14.28571 0.67343,0.67344 2.18371,-0.67343 2.85714,0 0.67344,0.67344 -0.42592,2.00531 0,2.85714 0.60234,1.20468 2.25481,1.65247 2.85714,2.85715 0.85184,1.70367 -1.34687,4.36741 0,5.71428 0.67344,0.67344 1.90477,0 2.85715,0 3.80952,5.71429 8.35723,11.00019 11.42857,17.14286 0.85183,1.70367 -0.85184,4.01061 0,5.71429 0.42592,0.85183 2.18371,-0.67344 2.85714,0 1.50585,1.50584 1.5268,4.05135 2.85714,5.71428 2.52415,3.15519 6.04728,5.41624 8.57143,8.57143 6.29476,1.43884 1.51028,5.87769 2.85715,8.57143 0.60233,1.20468 1.90476,1.90476 2.85714,2.85714 1.90476,1.90476 4.09804,3.55929 5.71428,5.71429 2.08798,2.78396 2.21872,6.82364 5.71429,8.57143 3.94102,1.97051 2.55564,-3.46016 5.71429,2.85714 1.34687,2.69374 1.05012,6.16207 2.85714,8.57143 4.7619,4.7619 9.52381,9.52381 14.28571,14.28571 0.95238,0 2.18371,-0.67343 2.85715,0 0.67343,0.67344 -0.52829,2.06472 0,2.85714 3.38268,5.07402 7.52459,9.60094 11.42857,14.28572 0.86224,1.03469 1.95114,1.86054 2.85714,2.85714 8.61894,9.48084 17.51162,18.72823 25.71429,28.57143 1.36333,1.636 1.35129,4.20844 2.85714,5.71429 0.67343,0.67343 2.18371,-0.67344 2.85714,0 15.83582,-1.32712 3.0536,8.10271 5.71429,11.42857 3.36553,4.20691 7.97959,7.28979 11.42857,11.42857 1.36333,1.63599 1.67586,3.94236 2.85714,5.71428 0.74711,1.12067 2.25481,1.65247 2.85714,2.85715 0.42592,0.85183 -0.67343,2.1837 0,2.85714 0.67344,0.67343 2.18371,-0.67344 2.85715,0 0.67343,0.67343 -0.59495,2.11346 0,2.85714 3.36553,4.20692 7.61904,7.61905 11.42857,11.42857 0.95238,0.95238 1.65246,2.25481 2.85714,2.85715 0.85184,0.42591 2.18371,-0.67344 2.85714,0 7.48998,0.67409 0.97576,6.21969 2.85715,8.57143 3.36553,4.20691 8.06304,7.22165 11.42857,11.42857 0.59495,0.74368 -0.63273,2.14532 0,2.85714 7.15849,8.05331 15.23809,15.23809 22.85714,22.85714 0.95238,0.95238 2.25481,1.65247 2.85714,2.85715 0.42592,0.85183 -0.67343,2.1837 0,2.85714 1.50585,1.50584 4.20844,1.35129 5.71429,2.85714 1.50585,1.50585 1.67586,3.94236 2.85714,5.71429 0.74711,1.12066 2.25481,1.65246 2.85715,2.85714 0.42591,0.85184 -0.67344,2.18371 0,2.85714 1.50584,1.50585 4.20843,1.3513 5.71428,2.85715 0.67344,0.67343 -0.42592,2.0053 0,2.85714 0.60234,1.20468 2.04902,1.77965 2.85714,2.85714 2.06032,2.74709 3.94758,5.62692 5.71429,8.57143 1.09566,1.82611 2.18371,3.69398 2.85714,5.71429 0.30117,0.9035 -0.67343,2.1837 0,2.85714 0.67344,0.67343 2.18371,-0.67344 2.85715,0 0.67343,0.67343 -0.42592,2.00531 0,2.85714 9.47595,9.47595 -1.34687,-2.69374 2.85714,5.71429 -0.60778,5.93993 4.43653,1.15347 5.71428,2.85714 2.55551,3.40734 4.13247,7.47402 5.71429,11.42857 0.35371,0.88426 -0.67344,2.18371 0,2.85714 0.67344,0.67344 2.18371,-0.67343 2.85714,0 3.80953,4.76191 7.61905,9.52381 11.42857,14.28572 0,0.95238 -0.42591,2.00531 0,2.85714 1.15545,2.31089 4.55884,3.4034 5.71429,5.71429 0.42592,0.85183 -0.42592,2.0053 0,2.85714 0.60234,1.20468 2.2548,1.65247 2.85714,2.85714 0.42592,0.85184 -0.52828,2.06472 0,2.85715 1.49422,2.24132 4.50961,3.30493 5.71429,5.71428 0.85183,1.70367 -0.85184,4.01062 0,5.71429 0.42592,0.85183 2.18371,-0.67344 2.85714,0 0.67344,0.67343 -0.42592,2.0053 0,2.85714 1.53567,3.07134 4.17862,5.50009 5.71429,8.57143 0.42591,0.85183 -0.67344,2.18371 0,2.85714 0.67343,0.67344 2.1837,-0.67343 2.85714,0 0.67344,0.67344 -0.67344,2.18371 0,2.85714 0.67344,0.67344 2.18371,-0.67343 2.85714,0 0.67344,0.67344 -0.67343,2.18371 0,2.85715 0.67344,0.67343 2.18371,-0.67344 2.85715,0 1.34687,1.34687 -0.85184,4.01061 0,5.71428 1.17087,2.34175 4.54341,3.37254 5.71428,5.71429 0.42592,0.85183 -0.67343,2.18371 0,2.85714 0.67344,0.67344 2.18371,-0.67343 2.85714,0 0.67344,0.67344 -0.42591,2.00531 0,2.85714 0.60234,1.20468 2.25481,1.65247 2.85715,2.85715 0.85183,1.70367 -1.34687,4.36741 0,5.71428 0.67343,0.67344 2.1837,-0.67343 2.85714,0 0.67344,0.67344 0,1.90476 0,2.85715 0,3.80952 -0.92395,7.73279 0,11.42857 0.32666,1.30665 2.2548,1.65246 2.85714,2.85714 0.85184,1.70367 -0.46197,3.86639 0,5.71429 0.73045,2.92177 2.1267,5.64965 2.85715,8.57142 0.29326,1.17304 -0.34634,5.36795 0,5.71429 0.67343,0.67343 1.90476,0 2.85714,0 0.95238,0 2.18371,0.67343 2.85714,0 1.34687,-1.34687 -1.34687,-4.36742 0,-5.71429 5.91153,-5.91153 -0.23108,9.03361 5.71429,-2.85714 1.34687,-2.69374 2.1267,-5.64966 2.85714,-8.57143 0.46197,-1.84789 -0.85184,-4.01061 0,-5.71428 0.60234,-1.20468 2.2548,-1.65247 2.85714,-2.85715 0.42592,-0.85183 -0.2066,-1.92744 0,-2.85714 1.90476,-7.61905 3.80953,-15.23809 5.71429,-22.85714 0,-0.95238 -0.17551,-1.92108 0,-2.85714 2.68483,-14.3191 5.8866,-28.53805 8.57143,-42.85715 0.35102,-1.87213 -0.60234,-3.90727 0,-5.71428 1.62184,-4.86554 4.09244,-9.42018 5.71428,-14.28572 0.30117,-0.90351 0,-1.90476 0,-2.85714 0,-6.66667 0,-13.33333 0,-20 0,-2.85714 -0.56033,-5.76977 0,-8.57143 0.77011,-3.85051 2.08704,-7.57806 2.85715,-11.42857 0.37355,-1.86777 0,-3.80952 0,-5.71429 0,-3.80952 0,-7.61904 0,-11.42857 0,-1.90476 -0.85184,-4.01061 0,-5.71428 0.42591,-0.85184 2.1837,0.67343 2.85714,0 0.67343,-0.67344 0,-1.90477 0,-2.85715 0,-3.80952 0,-7.61904 0,-11.42857 0,-21.50065 -0.42069,-4.36451 2.85714,-37.14285 0.0948,-0.94766 -0.42592,-2.00531 0,-2.85715 0.60234,-1.20467 2.593,-1.53643 2.85714,-2.85714 0.77059,-3.85293 0,-14.77787 0,-20 0,-0.95238 -0.67343,-2.18371 0,-2.85714 0.67344,-0.67344 2.67037,0.93388 2.85715,0 1.12066,-5.60332 0,-11.42857 0,-17.14286 0,-0.95238 0,-1.90476 0,-2.85714 0,-0.95238 -0.42592,-2.00531 0,-2.85715 0.60234,-1.20467 2.2548,-1.65246 2.85714,-2.85714 0.42592,-0.85183 0,-1.90476 0,-2.85714 0,-0.95238 0,-1.90476 0,-2.85714 0,-4.76191 0,-9.52381 0,-14.28572 0,-6.66667 0,-13.33333 0,-20 0,-1.90476 0,-3.80952 0,-5.71428 0,-0.95239 -0.42592,-2.00531 0,-2.85715 0.60234,-1.20467 2.2548,-1.65246 2.85714,-2.85714 0.68255,-1.3651 -0.30076,-6.76686 0,-8.57143 0.79836,-4.79013 1.52304,-9.61635 2.85715,-14.28571 0.58504,-2.04765 2.1837,-3.69398 2.85714,-5.71429 0.60234,-1.80701 -0.85184,-4.01061 0,-5.71428 0.60234,-1.20468 2.2548,-1.65247 2.85714,-2.85715 0.98676,-1.97352 -1.00291,-13.2828 0,-14.28571 7.61905,-7.61905 -0.95238,8.57143 2.85714,-2.85714 0.67344,-2.02031 2.18371,-3.69399 2.85715,-5.71429 0.53733,-1.612 0,-6.69398 0,-8.57143 0,-5.71428 0,-11.42857 0,-17.14286 0,-0.95238 0,-1.90476 0,-2.85714 0,-0.95238 -0.67344,-2.18371 0,-2.85714 0.67343,-0.67344 2.1837,0.67343 2.85714,0 0.67344,-0.67344 0,-1.90476 0,-2.85714 0,-2.23339 -0.52061,-18.43818 0,-20 3.28306,-9.84919 2.85714,-2.11647 2.85714,-8.57143 0,-1.08878 0.27732,-14.0084 0,-14.28572 -1.34687,-1.34687 -4.01061,0.85184 -5.71428,0 -1.20468,-0.60234 -1.57939,-2.43122 -2.85715,-2.85714 -1.80701,-0.60234 -3.80952,0 -5.71428,0 -1.90476,0 -3.80953,0 -5.71429,0 -5.44613,0 -11.66533,-0.60861 -17.14285,0 -7.63138,0.84793 -15.22577,2.00921 -22.85715,2.85714 -0.94655,0.10518 -1.90476,0 -2.85714,0 -24.7619,4.76191 -49.62982,9.00231 -74.28571,14.28572 -2.08232,0.44621 -3.73702,2.06623 -5.71429,2.85714 -2.79629,1.11851 -5.64966,2.1267 -8.57143,2.85714 -0.92394,0.23099 -2.00531,-0.42592 -2.85714,0 -1.20468,0.60234 -1.69623,2.17426 -2.85714,2.85715 -64.68919,38.05246 -28.02825,13.92359 -54.28572,31.42857 -2.85714,1.90476 -5.89003,3.56917 -8.57143,5.71428 -4.20691,3.36553 -6.94591,8.44014 -11.42857,11.42857 -0.79243,0.52829 -2.00531,-0.42591 -2.85714,0 -1.20468,0.60234 -1.82245,1.9949 -2.85714,2.85715 -4.68478,3.90398 -9.65561,7.4599 -14.28572,11.42857 -2.04524,1.75306 -3.47296,4.22007 -5.71428,5.71428 -0.79243,0.52829 -2.22703,-0.71413 -2.85715,0 -13.33333,16.19048 -26.66666,32.38096 -40,48.57143 0,0.95238 0.52829,2.06472 0,2.85715 -1.49422,2.24132 -4.22006,3.47295 -5.71428,5.71428 -0.52829,0.79243 0.30117,1.95364 0,2.85714 -0.67344,2.02031 -1.78411,3.8748 -2.85715,5.71429 -5.59628,9.59362 -11.54657,18.9778 -17.14285,28.57143 -11.22624,19.24497 0.69515,-2.08546 -2.85715,8.57143 -0.67343,2.0203 -1.90476,3.80952 -2.85714,5.71428 -0.95238,1.90476 -1.72846,3.9084 -2.85714,5.71429 -3.63988,5.82381 -7.30794,11.64868 -11.42857,17.14286 -7.97248,10.62996 -4.43667,0.30191 -11.42857,14.28571 -0.85184,1.70367 1.05657,4.12943 0,5.71429 -1.49422,2.24132 -3.80953,3.80952 -5.71429,5.71428 -0.95238,0.95238 -2.2548,1.65247 -2.85714,2.85714 -0.42592,0.85184 0.52828,2.06472 0,2.85715 -1.49422,2.24132 -4.09804,3.55929 -5.71429,5.71428 -1.27775,1.70367 -1.67586,3.94236 -2.85714,5.71429 -0.74711,1.12066 -2.25481,1.65246 -2.85714,2.85714 -0.42592,0.85184 0.42591,2.00531 0,2.85714 -0.60234,1.20468 -2.11004,1.73648 -2.85715,2.85715 -3.08041,4.62061 -5.10231,9.94932 -8.57143,14.28571 -0.59494,0.74369 -2.22999,-0.71674 -2.85714,0 -6.27147,7.1674 -10.81558,15.73896 -17.14286,22.85714 -1.41482,1.59168 -4.01061,1.57939 -5.71428,2.85715 -2.15499,1.61624 -3.47296,4.22006 -5.71429,5.71428 -0.79243,0.52829 -2.1837,-0.67343 -2.85714,0 -0.67344,0.67344 0.67344,2.18371 0,2.85715 -0.67344,0.67343 -2.18371,-0.67344 -2.85714,0 -0.67344,0.67343 0,1.90476 0,2.85714 -4.76191,3.80952 -9.60094,7.52459 -14.28572,11.42857 -2.06939,1.72449 -3.80952,3.80952 -5.71428,5.71429 -4.76191,4.7619 -9.97449,9.11224 -14.28572,14.28571 -0.6097,0.73164 0,1.90476 0,2.85714 -0.95238,1.90476 -1.35129,4.20844 -2.85714,5.71429 -1.50585,1.50584 -4.20844,1.35129 -5.71429,2.85714 -1.42857,1.42857 1.42858,7.14286 0,8.57143 -0.67343,0.67343 -2.1837,-0.67344 -2.85714,0 -0.67343,0.67343 0.42592,2.00531 0,2.85714 -6.74598,13.49197 1.50258,-17.43889 -5.71428,11.42857 -0.29326,1.17304 0.34633,5.36795 0,5.71429 -0.67344,0.67343 -2.18371,-0.67344 -2.85715,0 -0.67343,0.67343 0,1.90476 0,2.85714 0,1.90476 -0.85183,4.01062 0,5.71429 0.42592,0.85183 2.18371,-0.67344 2.85715,0 0.67343,0.67343 -0.67344,2.18371 0,2.85714 0.67343,0.67344 2.0053,-0.42592 2.85714,0 2.40935,1.20468 3.30493,4.50961 5.71428,5.71429 0.85184,0.42591 1.90477,0 2.85715,0 1.90476,0 3.90727,-0.60234 5.71428,0 1.27776,0.42591 1.53643,2.593 2.85715,2.85714 8.4567,1.69134 17.1199,2.14094 25.71428,2.85714 6.49875,0.54157 13.43941,0 20,0 10.47619,0 20.96851,0.58112 31.42857,0 6.72398,-0.37355 13.28891,-2.29788 20,-2.85714 36.29385,-3.02449 -2.24623,3.4187 22.85715,-2.85714 0.92394,-0.23099 1.90476,0 2.85714,0 3.80952,0 7.67088,0.62628 11.42857,0 2.10061,-0.35011 3.69398,-2.18371 5.71429,-2.85715 0.9035,-0.30117 1.90476,0 2.85714,0 2.85714,0 5.71428,0 8.57143,0 8.57143,0 17.16464,0.61069 25.71428,0 4.84387,-0.34599 9.46701,-2.2548 14.28572,-2.85714 3.7801,-0.47251 7.61904,0 11.42857,0 17.14286,0 34.28571,0 51.42857,0 5.71429,0 11.42857,0 17.14286,0 1.87745,0 6.95943,-0.53733 8.57143,0 6.08303,2.02768 5.34553,3.68661 11.42857,5.71429 0.90351,0.30117 2.0053,-0.42592 2.85714,0 1.20468,0.60234 1.65247,2.2548 2.85714,2.85714 0.85184,0.42592 2.18371,-0.67344 2.85715,0 0.67343,0.67343 -0.90351,2.55597 0,2.85714 2.71052,0.90351 5.8609,-0.90351 8.57142,0 0.90351,0.30117 -0.42591,2.00531 0,2.85715 0.60234,1.20467 1.77965,2.04902 2.85715,2.85714 2.74708,2.06031 5.50009,4.17862 8.57143,5.71428 0.85183,0.42592 2.1837,-0.67343 2.85714,0 0.67343,0.67344 -0.67344,2.18371 0,2.85715 0.67343,0.67343 2.18371,-0.67344 2.85714,0 0.67344,0.67343 -0.42592,2.0053 0,2.85714 1.3076,2.6152 6.48346,5.01829 8.57143,5.71429 0.90351,0.30116 2.00531,-0.42592 2.85714,0 7.06116,3.53057 -0.98622,2.85714 5.71429,2.85714"
       id="path2985"
       inkscape:connector-curvature="0" />
  </g>
</svg>
