<?xml version="1.0" encoding="UTF-8" standalone="no"?>
<!-- Created with Inkscape (http://www.inkscape.org/) -->

<svg
   xmlns:dc="http://purl.org/dc/elements/1.1/"
   xmlns:cc="http://creativecommons.org/ns#"
   xmlns:rdf="http://www.w3.org/1999/02/22-rdf-syntax-ns#"
   xmlns:svg="http://www.w3.org/2000/svg"
   xmlns="http://www.w3.org/2000/svg"
   xmlns:sodipodi="http://sodipodi.sourceforge.net/DTD/sodipodi-0.dtd"
   xmlns:inkscape="http://www.inkscape.org/namespaces/inkscape"
   width="744.09448819"
   height="1052.3622047"
   id="svg2"
   version="1.1"
   inkscape:version="0.48.4 r9939"
   sodipodi:docname="drawing.svg">
  <defs
     id="defs4" />
  <sodipodi:namedview
     id="base"
     pagecolor="#ffffff"
     bordercolor="#666666"
     borderopacity="1.0"
     inkscape:pageopacity="0.0"
     inkscape:pageshadow="2"
     inkscape:zoom="0.98994949"
     inkscape:cx="451.6857"
     inkscape:cy="520.14394"
     inkscape:document-units="px"
     inkscape:current-layer="layer1"
     showgrid="false"
     inkscape:window-width="1920"
     inkscape:window-height="1017"
     inkscape:window-x="-8"
     inkscape:window-y="-8"
     inkscape:window-maximized="1" />
  <metadata
     id="metadata7">
    <rdf:RDF>
      <cc:Work
         rdf:about="">
        <dc:format>image/svg+xml</dc:format>
        <dc:type
           rdf:resource="http://purl.org/dc/dcmitype/StillImage" />
        <dc:title></dc:title>
      </cc:Work>
    </rdf:RDF>
  </metadata>
  <g
     inkscape:label="Layer 1"
     inkscape:groupmode="layer"
     id="layer1">
    <path
       style="fill:none;stroke:#000000;stroke-width:1px;stroke-linecap:butt;stroke-linejoin:miter;stroke-opacity:1"
       d="m 180,206.6479 c 28.77669,-6.27093 4.64466,10.35894 8.57143,14.28571 0.67343,0.67344 2.18371,-0.67343 2.85714,0 0.67344,0.67344 -0.42592,2.00531 0,2.85714 0.60234,1.20468 2.25481,1.65247 2.85714,2.85715 0.85184,1.70367 -1.34687,4.36741 0,5.71428 0.67344,0.67344 1.90477,0 2.85715,0 3.80952,5.71429 8.35723,11.00019 11.42857,17.14286 0.85183,1.70367 -0.85184,4.01061 0,5.71429 0.42592,0.85183 2.18371,-0.67344 2.85714,0 1.50585,1.50584 1.5268,4.05135 2.85714,5.71428 2.52415,3.15519 6.04728,5.41624 8.57143,8.57143 6.29476,1.43884 1.51028,5.87769 2.85715,8.57143 0.60233,1.20468 1.90476,1.90476 2.85714,2.85714 1.90476,1.90476 4.09804,3.55929 5.71428,5.71429 2.08798,2.78396 2.21872,6.82364 5.71429,8.57143 3.94102,1.97051 2.55564,-3.46016 5.71429,2.85714 1.34687,2.69374 1.05012,6.16207 2.85714,8.57143 4.7619,4.7619 9.52381,9.52381 14.28571,14.28571 0.95238,0 2.18371,-0.67343 2.85715,0 0.67343,0.67344 -0.52829,2.06472 0,2.85714 3.38268,5.07402 7.52459,9.60094 11.42857,14.28572 0.86224,1.03469 1.95114,1.86054 2.85714,2.85714 8.61894,9.48084 17.51162,18.72823 25.71429,28.57143 1.36333,1.636 1.35129,4.20844 2.85714,5.71429 0.67343,0.67343 2.18371,-0.67344 2.85714,0 15.83582,-1.32712 3.0536,8.10271 5.71429,11.42857 3.36553,4.20691 7.97959,7.28979 11.42857,11.42857 1.36333,1.63599 1.67586,3.94236 2.85714,5.71428 0.74711,1.12067 2.25481,1.65247 2.85714,2.85715 0.42592,0.85183 -0.67343,2.1837 0,2.85714 0.67344,0.67343 2.18371,-0.67344 2.85715,0 0.67343,0.67343 -0.59495,2.11346 0,2.85714 3.36553,4.20692 7.61904,7.61905 11.42857,11.42857 0.95238,0.95238 1.65246,2.25481 2.85714,2.85715 0.85184,0.42591 2.18371,-0.67344 2.85714,0 7.48998,0.67409 0.97576,6.21969 2.85715,8.57143 3.36553,4.20691 8.06304,7.22165 11.42857,11.42857 0.59495,0.74368 -0.63273,2.14532 0,2.85714 7.15849,8.05331 15.23809,15.23809 22.85714,22.85714 0.95238,0.95238 2.25481,1.65247 2.85714,2.85715 0.42592,0.85183 -0.67343,2.1837 0,2.85714 1.50585,1.50584 4.20844,1.35129 5.71429,2.85714 1.50585,1.50585 1.67586,3.94236 2.85714,5.71429 0.74711,1.12066 2.25481,1.65246 2.85715,2.85714 0.42591,0.85184 -0.67344,2.18371 0,2.85714 1.50584,1.50585 4.20843,1.3513 5.71428,2.85715 0.67344,0.67343 -0.42592,2.0053 0,2.85714 0.60234,1.20468 2.04902,1.77965 2.85714,2.85714 2.06032,2.74709 3.94758,5.62692 5.71429,8.57143 1.09566,1.82611 2.18371,3.69398 2.85714,5.71429 0.30117,0.9035 -0.67343,2.1837 0,2.85714 0.67344,0.67343 2.18371,-0.67344 2.85715,0 0.67343,0.67343 -0.42592,2.00531 0,2.85714 9.47595,9.47595 -1.34687,-2.69374 2.85714,5.71429 -0.60778,5.93993 4.43653,1.15347 5.71428,2.85714 2.55551,3.40734 4.13247,7.47402 5.71429,11.42857 0.35371,0.88426 -0.67344,2.18371 0,2.85714 0.67344,0.67344 2.18371,-0.67343 2.85714,0 3.80953,4.76191 7.61905,9.52381 11.42857,14.28572 0,0.95238 -0.42591,2.00531 0,2.85714 1.15545,2.31089 4.55884,3.4034 5.71429,5.71429 0.42592,0.85183 -0.42592,2.0053 0,2.85714 0.60234,1.20468 2.2548,1.65247 2.85714,2.85714 0.42592,0.85184 -0.52828,2.06472 0,2.85715 1.49422,2.24132 4.50961,3.30493 5.71429,5.71428 0.85183,1.70367 -0.85184,4.01062 0,5.71429 0.42592,0.85183 2.18371,-0.67344 2.85714,0 0.67344,0.67343 -0.42592,2.0053 0,2.85714 1.53567,3.07134 4.17862,5.50009 5.71429,8.57143 0.42591,0.85183 -0.67344,2.18371 0,2.85714 0.67343,0.67344 2.1837,-0.67343 2.85714,0 0.67344,0.67344 -0.67344,2.18371 0,2.85714 0.67344,0.67344 2.18371,-0.67343 2.85714,0 0.67344,0.67344 -0.67343,2.18371 0,2.85715 0.67344,0.67343 2.18371,-0.67344 2.85715,0 1.34687,1.34687 -0.85184,4.01061 0,5.71428 1.17087,2.34175 4.54341,3.37254 5.71428,5.71429 0.42592,0.85183 -0.67343,2.18371 0,2.85714 0.67344,0.67344 2.18371,-0.67343 2.85714,0 0.67344,0.67344 -0.42591,2.00531 0,2.85714 0.60234,1.20468 2.25481,1.65247 2.85715,2.85715 0.85183,1.70367 -1.34687,4.36741 0,5.71428 0.67343,0.67344 2.1837,-0.67343 2.85714,0 0.67344,0.67344 0,1.90476 0,2.85715 0,3.80952 -0.92395,7.73279 0,11.42857 0.32666,1.30665 2.2548,1.65246 2.85714,2.85714 0.85184,1.70367 -0.46197,3.86639 0,5.71429 0.73045,2.92177 2.1267,5.64965 2.85715,8.57142 0.29326,1.17304 -0.34634,5.36795 0,5.71429 0.67343,0.67343 1.90476,0 2.85714,0 0.95238,0 2.18371,0.67343 2.85714,0 1.34687,-1.34687 -1.34687,-4.36742 0,-5.71429 5.91153,-5.91153 -0.23108,9.03361 5.71429,-2.85714 1.34687,-2.69374 2.1267,-5.64966 2.85714,-8.57143 0.46197,-1.84789 -0.85184,-4.01061 0,-5.71428 0.60234,-1.20468 2.2548,-1.65247 2.85714,-2.85715 0.42592,-0.85183 -0.2066,-1.92744 0,-2.85714 1.90476,-7.61905 3.80953,-15.23809 5.71429,-22.85714 0,-0.95238 -0.17551,-1.92108 0,-2.85714 2.68483,-14.3191 5.8866,-28.53805 8.57143,-42.85715 0.35102,-1.87213 -0.60234,-3.90727 0,-5.71428 1.62184,-4.86554 4.09244,-9.42018 5.71428,-14.28572 0.30117,-0.90351 0,-1.90476 0,-2.85714 0,-6.66667 0,-13.33333 0,-20 0,-2.85714 -0.56033,-5.76977 0,-8.57143 0.77011,-3.85051 2.08704,-7.57806 2.85715,-11.42857 0.37355,-1.86777 0,-3.80952 0,-5.71429 0,-3.80952 0,-7.61904 0,-11.42857 0,-1.90476 -0.85184,-4.01061 0,-5.71428 0.42591,-0.85184 2.1837,0.67343 2.85714,0 0.67343,-0.67344 0,-1.90477 0,-2.85715 0,-3.80952 0,-7.61904 0,-11.42857 0,-21.50065 -0.42069,-4.36451 2.85714,-37.14285 0.0948,-0.94766 -0.42592,-2.00531 0,-2.85715 0.60234,-1.20467 2.593,-1.53643 2.85714,-2.85714 0.77059,-3.85293 0,-14.77787 0,-20 0,-0.95238 -0.67343,-2.18371 0,-2.85714 0.67344,-0.67344 2.67037,0.93388 2.85715,0 1.12066,-5.60332 0,-11.42857 0,-17.14286 0,-0.95238 0,-1.90476 0,-2.85714 0,-0.95238 -0.42592,-2.00531 0,-2.85715 0.60234,-1.20467 2.2548,-1.65246 2.85714,-2.85714 0.42592,-0.85183 0,-1.90476 0,-2.85714 0,-0.95238 0,-1.90476 0,-2.85714 0,-4.76191 0,-9.52381 0,-14.28572 0,-6.66667 0,-13.33333 0,-20 0,-1.90476 0,-3.80952 0,-5.71428 0,-0.95239 -0.42592,-2.00531 0,-2.85715 0.60234,-1.20467 2.2548,-1.65246 2.85714,-2.85714 0.68255,-1.3651 -0.30076,-6.76686 0,-8.57143 0.79836,-4.79013 1.52304,-9.61635 2.85715,-14.28571 0.58504,-2.04765 2.1837,-3.69398 2.85714,-5.71429 0.60234,-1.80701 -0.85184,-4.01061 0,-5.71428 0.60234,-1.20468 2.2548,-1.65247 2.85714,-2.85715 0.98676,-1.97352 -1.00291,-13.2828 0,-14.28571 7.61905,-7.61905 -0.95238,8.57143 2.85714,-2.85714 0.67344,-2.02031 2.18371,-3.69399 2.85715,-5.71429 0.53733,-1.612 0,-6.69398 0,-8.57143 0,-5.71428 0,-11.42857 0,-17.14286 0,-0.95238 0,-1.90476 0,-2.85714 0,-0.95238 -0.67344,-2.18371 0,-2.85714 0.67343,-0.67344 2.1837,0.67343 2.85714,0 0.67344,-0.67344 0,-1.90476 0,-2.85714 0,-2.23339 -0.52061,-18.43818 0,-20 3.28306,-9.84919 2.85714,-2.11647 2.85714,-8.57143 0,-1.08878 0.27732,-14.0084 0,-14.28572 -1.34687,-1.34687 -4.01061,0.85184 -5.71428,0 -1.20468,-0.60234 -1.57939,-2.43122 -2.85715,-2.85714 -1.80701,-0.60234 -3.80952,0 -5.71428,0 -1.90476,0 -3.80953,0 -5.71429,0 -5.44613,0 -11.66533,-0.60861 -17.14285,0 -7.63138,0.84793 -15.22577,2.00921 -22.85715,2.85714 -0.94655,0.10518 -1.90476,0 -2.85714,0 -24.7619,4.76191 -49.62982,9.00231 -74.28571,14.28572 -2.08232,0.44621 -3.73702,2.06623 -5.71429,2.85714 -2.79629,1.11851 -5.64966,2.1267 -8.57143,2.85714 -0.92394,0.23099 -2.00531,-0.42592 -2.85714,0 -1.20468,0.60234 -1.69623,2.17426 -2.85714,2.85715 -64.68919,38.05246 -28.02825,13.92359 -54.28572,31.42857 -2.85714,1.90476 -5.89003,3.56917 -8.57143,5.71428 -4.20691,3.36553 -6.94591,8.44014 -11.42857,11.42857 -0.79243,0.52829 -2.00531,-0.42591 -2.85714,0 -1.20468,0.60234 -1.82245,1.9949 -2.85714,2.85715 -4.68478,3.90398 -9.65561,7.4599 -14.28572,11.42857 -2.04524,1.75306 -3.47296,4.22007 -5.71428,5.71428 -0.79243,0.52829 -2.22703,-0.71413 -2.85715,0 -13.33333,16.19048 -26.66666,32.38096 -40,48.57143 0,0.95238 0.52829,2.06472 0,2.85715 -1.49422,2.24132 -4.22006,3.47295 -5.71428,5.71428 -0.52829,0.79243 0.30117,1.95364 0,2.85714 -0.67344,2.02031 -1.78411,3.8748 -2.85715,5.71429 -5.59628,9.59362 -11.54657,18.9778 -17.14285,28.57143 -11.22624,19.24497 0.69515,-2.08546 -2.85715,8.57143 -0.67343,2.0203 -1.90476,3.80952 -2.85714,5.71428 -0.95238,1.90476 -1.72846,3.9084 -2.85714,5.71429 -3.63988,5.82381 -7.30794,11.64868 -11.42857,17.14286 -7.97248,10.62996 -4.43667,0.30191 -11.42857,14.28571 -0.85184,1.70367 1.05657,4.12943 0,5.71429 -1.49422,2.24132 -3.80953,3.80952 -5.71429,5.71428 -0.95238,0.95238 -2.2548,1.65247 -2.85714,2.85714 -0.42592,0.85184 0.52828,2.06472 0,2.85715 -1.49422,2.24132 -4.09804,3.55929 -5.71429,5.71428 -1.27775,1.70367 -1.67586,3.94236 -2.85714,5.71429 -0.74711,1.12066 -2.25481,1.65246 -2.85714,2.85714 -0.42592,0.85184 0.42591,2.00531 0,2.85714 -0.60234,1.20468 -2.11004,1.73648 -2.85715,2.85715 -3.08041,4.62061 -5.10231,9.94932 -8.57143,14.28571 -0.59494,0.74369 -2.22999,-0.71674 -2.85714,0 -6.27147,7.1674 -10.81558,15.73896 -17.14286,22.85714 -1.41482,1.59168 -4.01061,1.57939 -5.71428,2.85715 -2.15499,1.61624 -3.47296,4.22006 -5.71429,5.71428 -0.79243,0.52829 -2.1837,-0.67343 -2.85714,0 -0.67344,0.67344 0.67344,2.18371 0,2.85715 -0.67344,0.67343 -2.18371,-0.67344 -2.85714,0 -0.67344,0.67343 0,1.90476 0,2.85714 -4.76191,3.80952 -9.60094,7.52459 -14.28572,11.42857 -2.06939,1.72449 -3.80952,3.80952 -5.71428,5.71429 -4.76191,4.7619 -9.97449,9.11224 -14.28572,14.28571 -0.6097,0.73164 0,1.90476 0,2.85714 -0.95238,1.90476 -1.35129,4.20844 -2.85714,5.71429 -1.50585,1.50584 -4.20844,1.35129 -5.71429,2.85714 -1.42857,1.42857 1.42858,7.14286 0,8.57143 -0.67343,0.67343 -2.1837,-0.67344 -2.85714,0 -0.67343,0.67343 0.42592,2.00531 0,2.85714 -6.74598,13.49197 1.50258,-17.43889 -5.71428,11.42857 -0.29326,1.17304 0.34633,5.36795 0,5.71429 -0.67344,0.67343 -2.18371,-0.67344 -2.85715,0 -0.67343,0.67343 0,1.90476 0,2.85714 0,1.90476 -0.85183,4.01062 0,5.71429 0.42592,0.85183 2.18371,-0.67344 2.85715,0 0.67343,0.67343 -0.67344,2.18371 0,2.85714 0.67343,0.67344 2.0053,-0.42592 2.85714,0 2.40935,1.20468 3.30493,4.50961 5.71428,5.71429 0.85184,0.42591 1.90477,0 2.85715,0 1.90476,0 3.90727,-0.60234 5.71428,0 1.27776,0.42591 1.53643,2.593 2.85715,2.85714 8.4567,1.69134 17.1199,2.14094 25.71428,2.85714 6.49875,0.54157 13.43941,0 20,0 10.47619,0 20.96851,0.58112 31.42857,0 6.72398,-0.37355 13.28891,-2.29788 20,-2.85714 36.29385,-3.02449 -2.24623,3.4187 22.85715,-2.85714 0.92394,-0.23099 1.90476,0 2.85714,0 3.80952,0 7.67088,0.62628 11.42857,0 2.10061,-0.35011 3.69398,-2.18371 5.71429,-2.85715 0.9035,-0.30117 1.90476,0 2.85714,0 2.85714,0 5.71428,0 8.57143,0 8.57143,0 17.16464,0.61069 25.71428,0 4.84387,-0.34599 9.46701,-2.2548 14.28572,-2.85714 3.7801,-0.47251 7.61904,0 11.42857,0 17.14286,0 34.28571,0 51.42857,0 5.71429,0 11.42857,0 17.14286,0 1.87745,0 6.95943,-0.53733 8.57143,0 6.08303,2.02768 5.34553,3.68661 11.42857,5.71429 0.90351,0.30117 2.0053,-0.42592 2.85714,0 1.20468,0.60234 1.65247,2.2548 2.85714,2.85714 0.85184,0.42592 2.18371,-0.67344 2.85715,0 0.67343,0.67343 -0.90351,2.55597 0,2.85714 2.71052,0.90351 5.8609,-0.90351 8.57142,0 0.90351,0.30117 -0.42591,2.00531 0,2.85715 0.60234,1.20467 1.77965,2.04902 2.85715,2.85714 2.74708,2.06031 5.50009,4.17862 8.57143,5.71428 0.85183,0.42592 2.1837,-0.67343 2.85714,0 0.67343,0.67344 -0.67344,2.18371 0,2.85715 0.67343,0.67343 2.18371,-0.67344 2.85714,0 0.67344,0.67343 -0.42592,2.0053 0,2.85714 1.3076,2.6152 6.48346,5.01829 8.57143,5.71429 0.90351,0.30116 2.00531,-0.42592 2.85714,0 7.06116,3.53057 -0.98622,2.85714 5.71429,2.85714"
       id="path2985"
       inkscape:connector-curvature="0" />
    <path
       style="fill:#501616"
       d="m 505.78644,663.28553 c -0.38751,-2.91681 -0.95453,-7.34661 -1.26009,-9.84399 -0.30554,-2.49738 -1.38963,-5.60109 -2.40908,-6.89711 -1.53501,-1.95145 -1.74944,-3.47135 -1.24776,-8.84383 0.52222,-5.59224 0.37658,-6.48741 -1.0555,-6.48741 -1.15674,0 -1.66129,-0.88281 -1.66129,-2.90677 0,-1.59872 -0.68186,-3.47266 -1.51523,-4.1643 -0.83338,-0.69164 -1.51523,-1.88372 -1.51523,-2.64906 0,-0.76535 -0.68185,-1.39155 -1.51523,-1.39155 -0.83338,0 -1.51523,-0.85686 -1.51523,-1.90412 0,-1.04727 -1.13642,-2.64875 -2.52538,-3.55882 -1.89226,-1.23986 -2.52538,-2.53523 -2.52538,-5.16694 0,-2.44857 -0.45889,-3.51225 -1.51523,-3.51225 -0.83338,0 -1.51523,-0.68186 -1.51523,-1.51523 0,-0.83338 -0.68185,-1.51523 -1.51523,-1.51523 -0.83337,0 -1.51523,-0.68185 -1.51523,-1.51523 0,-0.83338 -0.68185,-1.51523 -1.51523,-1.51523 -0.83337,0 -1.51523,-0.57633 -1.51523,-1.28074 0,-0.7044 -1.13642,-2.95313 -2.52538,-4.99716 -1.38896,-2.04405 -2.52538,-4.6497 -2.52538,-5.79034 0,-1.17003 -0.66039,-2.07389 -1.51523,-2.07389 -0.98775,0 -1.51523,-0.98916 -1.51523,-2.84147 0,-1.83856 -1.06961,-3.86622 -3.03045,-5.74483 -1.66675,-1.59685 -3.03046,-3.44451 -3.03046,-4.10592 0,-0.66139 -0.68185,-1.76843 -1.51523,-2.46007 -0.83338,-0.69164 -1.51523,-2.1075 -1.51523,-3.14635 0,-1.03886 -1.36593,-3.10587 -3.03539,-4.59337 -1.66945,-1.4875 -2.91952,-3.29091 -2.77792,-4.00756 0.34785,-1.76042 -11.28053,-16.53699 -13.01374,-16.53699 -0.7568,0 -1.376,-0.67179 -1.376,-1.49286 0,-0.82106 -1.23111,-4.00304 -2.73582,-7.07107 -2.34372,-4.77875 -3.13996,-5.57821 -5.55583,-5.57821 -2.43326,0 -2.82003,-0.39867 -2.82003,-2.90677 0,-1.59872 -0.68185,-3.47266 -1.51523,-4.1643 -0.83337,-0.69164 -1.51522,-1.88372 -1.51522,-2.64906 0,-0.76535 -0.68186,-1.39155 -1.51523,-1.39155 -0.83338,0 -1.51523,-0.69996 -1.51523,-1.55547 0,-2.25824 -3.38566,-8.54343 -7.51903,-13.95843 -1.97596,-2.58865 -3.59265,-5.34008 -3.59265,-6.1143 0,-0.77421 -1.36371,-1.88306 -3.03046,-2.4641 -1.95516,-0.68157 -3.03046,-1.74804 -3.03046,-3.00558 0,-1.07204 -0.63295,-2.47446 -1.40654,-3.1165 -0.77361,-0.64203 -1.94902,-2.47697 -2.61204,-4.07764 -0.66302,-1.60067 -2.5302,-3.45902 -4.1493,-4.12966 -1.61908,-0.67065 -2.94379,-1.90433 -2.94379,-2.7415 0,-0.83717 -5.68211,-7.11426 -12.62691,-13.94908 -6.9448,-6.83482 -12.62691,-13.24099 -12.62691,-14.23593 0,-0.99494 -2.61377,-4.45116 -5.80837,-7.6805 -4.95209,-5.00592 -5.80838,-6.41876 -5.80838,-9.5835 0,-3.42248 -0.29421,-3.79531 -3.77212,-4.78021 -4.12821,-1.16906 -15.91341,-11.99234 -15.94331,-14.642 -0.01,-0.85076 -1.1719,-2.64224 -2.58289,-3.98107 -1.41099,-1.33881 -3.26911,-3.83894 -4.12915,-5.55584 -0.86004,-1.71688 -4.32311,-5.94165 -7.69572,-9.38839 l -6.13202,-6.26677 1.32414,-4.01218 c 1.86303,-5.64505 0.98358,-7.16851 -4.22125,-7.31248 -2.37867,-0.0658 -4.65582,-0.0691 -5.06034,-0.007 -0.40452,0.0617 -1.48764,-1.36179 -2.40694,-3.16337 -1.7379,-3.40617 -10.44519,-13.63829 -21.34487,-25.08314 -6.27647,-6.59041 -6.31826,-6.67273 -4.30983,-8.49032 1.11545,-1.00947 2.02809,-2.56339 2.02809,-3.45317 0,-2.21505 39.15558,-49.58688 40.98645,-49.58688 0.80651,0 3.61964,-1.99147 6.25139,-4.42548 9.16408,-8.47551 18.37147,-15.77757 19.89441,-15.77757 0.84324,0 3.69799,-2.32056 6.34387,-5.1568 5.21159,-5.58654 21.42199,-16.98892 31.10368,-21.8783 7.5333,-3.80442 37.82477,-21.2333 39.87201,-22.94126 0.83338,-0.69526 3.04936,-1.55378 4.92441,-1.90783 1.87505,-0.35404 5.96617,-1.75828 9.09138,-3.12054 6.63995,-2.8943 61.2007,-13.6409 85.04543,-16.75104 20.00143,-2.60884 45.83035,-2.81469 48.51331,-0.38665 1.1073,1.00209 2.57652,1.36206 3.87596,0.94964 1.98891,-0.63126 2.0927,-0.29122 2.0927,6.85665 0,4.40001 -0.62876,9.02568 -1.51523,11.14731 -1.03617,2.47988 -1.51523,7.14988 -1.51523,14.77057 0,9.23246 -0.25992,11.14413 -1.51523,11.14413 -1.285,0 -1.51523,2.50614 -1.51523,16.49433 l 0,16.49433 -3.10671,4.69029 c -2.86096,4.31925 -3.05114,5.13513 -2.40411,10.31371 0.57176,4.57627 0.37908,5.98091 -1.03476,7.54318 -0.95556,1.05587 -1.87602,3.4248 -2.04548,5.2643 -0.16947,1.8395 -1.27732,5.99201 -2.46191,9.22779 -1.18459,3.2358 -2.43166,9.48639 -2.77125,13.89022 -0.37131,4.815 -1.16179,8.4587 -1.98291,9.14018 -1.0785,0.89508 -1.36546,6.28234 -1.36546,25.63459 0,20.77324 -0.23546,24.69678 -1.54743,25.78561 -1.30013,1.07903 -1.43885,3.10047 -0.86797,12.64915 0.62841,10.51099 0.54056,11.39164 -1.16921,11.72091 -1.67626,0.32282 -1.82329,1.37634 -1.57669,11.29694 0.2121,8.53256 -0.0579,11.3116 -1.22665,12.62488 -2.13084,2.39436 -4.72373,25.47482 -4.72373,42.04803 0,11.48575 -0.24295,13.67908 -1.51523,13.67908 -1.26375,0 -1.51722,2.05369 -1.52722,12.37437 -0.007,7.6914 -0.57634,14.47693 -1.50324,17.93021 -1.00386,3.73999 -1.49516,10.59726 -1.50323,20.98074 -0.011,14.1069 -0.22778,15.95594 -2.53738,21.6399 -1.38896,3.41824 -2.52399,7.38669 -2.5223,8.81876 0.004,3.18313 -8.04649,44.72649 -11.74879,60.62963 -1.48001,6.35737 -2.74226,12.26676 -2.80498,13.13198 -0.0627,0.86523 -0.94477,2.80321 -1.96012,4.30663 -1.01534,1.50343 -1.54252,3.22466 -1.17151,3.82496 0.37101,0.6003 -0.0917,3.52764 -1.02827,6.50518 -1.44927,4.60762 -2.13839,5.50084 -4.62809,5.99877 -2.45331,0.49066 -2.92528,1.07808 -2.92528,3.64077 0,2.31308 -0.45976,3.05571 -1.89179,3.05571 -1.51925,0 -2.03052,-1.04433 -2.59632,-5.3033 z"
       id="path2987"
       inkscape:connector-curvature="0" />
  </g>
</svg>
